<svg height="512pt" viewBox="0 0 512 512" width="512pt" xmlns="http://www.w3.org/2000/svg"><path d="m0 136.535156h512v375.464844h-512zm0 0" fill="#ffeb99"/><path d="m477.867188 34.132812h-85.332032v-17.066406c0-9.425781-7.644531-17.066406-17.070312-17.066406h-34.132813c-9.425781 0-17.066406 7.640625-17.066406 17.066406v17.066406h-136.53125v-17.066406c0-9.425781-7.640625-17.066406-17.066406-17.066406h-34.132813c-9.425781 0-17.070312 7.640625-17.070312 17.066406v17.066406h-85.332032c-18.828124.054688-34.0781245 15.304688-34.132812 34.132813v68.269531h512v-68.269531c-.054688-18.828125-15.304688-34.078125-34.132812-34.132813zm0 0" fill="#ff9478"/><g fill="#ffc477"><path d="m102.398438 221.867188h34.132812c9.425781 0 17.066406 7.640624 17.066406 17.066406v34.132812c0 9.425782-7.640625 17.066406-17.066406 17.066406h-34.132812c-9.425782 0-17.066407-7.640624-17.066407-17.066406v-34.132812c0-9.425782 7.640625-17.066406 17.066407-17.066406zm0 0"/><path d="m238.933594 221.867188h34.132812c9.425782 0 17.066406 7.640624 17.066406 17.066406v34.132812c0 9.425782-7.640624 17.066406-17.066406 17.066406h-34.132812c-9.425782 0-17.066406-7.640624-17.066406-17.066406v-34.132812c0-9.425782 7.640624-17.066406 17.066406-17.066406zm0 0"/><path d="m102.398438 358.398438h34.132812c9.425781 0 17.066406 7.640624 17.066406 17.066406v34.132812c0 9.429688-7.640625 17.070313-17.066406 17.070313h-34.132812c-9.425782 0-17.066407-7.640625-17.066407-17.070313v-34.132812c0-9.425782 7.640625-17.066406 17.066407-17.066406zm0 0"/></g><path d="m136.535156 0h34.132813c9.425781 0 17.066406 7.640625 17.066406 17.066406v51.199219h-68.269531v-51.199219c0-9.425781 7.644531-17.066406 17.070312-17.066406zm0 0" fill="#ff7956"/><path d="m341.332031 0h34.132813c9.425781 0 17.066406 7.640625 17.066406 17.066406v51.199219h-68.265625v-51.199219c0-9.425781 7.640625-17.066406 17.066406-17.066406zm0 0" fill="#ff7956"/><path d="m238.933594 358.398438h17.066406c9.425781 0 17.066406 7.640624 17.066406 17.066406v34.132812c0 9.429688-7.640625 17.070313-17.066406 17.070313h-17.066406c-9.425782 0-17.066406-7.640625-17.066406-17.070313v-34.132812c0-9.425782 7.640624-17.066406 17.066406-17.066406zm0 0" fill="#ffc477"/><path d="m375.464844 221.867188h34.132812c9.429688 0 17.070313 7.640624 17.070313 17.066406v17.066406c0 9.425781-7.640625 17.066406-17.070313 17.066406h-34.132812c-9.425782 0-17.066406-7.640625-17.066406-17.066406v-17.066406c0-9.425782 7.640624-17.066406 17.066406-17.066406zm0 0" fill="#ffc477"/><path d="m0 136.535156h512v17.066406h-512zm0 0" fill="#ffde55"/><path d="m409.597656 375.464844c-56.558594 0-102.398437 51.203125-102.398437 51.203125s45.839843 51.199219 102.398437 51.199219c56.5625 0 102.402344-51.199219 102.402344-51.199219s-45.839844-51.203125-102.402344-51.203125zm0 85.335937c-18.847656 0-34.132812-15.28125-34.132812-34.132812 0-18.851563 15.285156-34.132813 34.132812-34.132813 18.851563 0 34.136719 15.28125 34.136719 34.132813 0 18.847656-15.28125 34.132812-34.136719 34.132812zm0 0" fill="#ff9811"/><path d="m443.734375 426.667969c0 18.851562-15.285156 34.132812-34.136719 34.132812-18.847656 0-34.132812-15.28125-34.132812-34.132812 0-18.851563 15.285156-34.132813 34.132812-34.132813 18.851563 0 34.136719 15.28125 34.136719 34.132813zm0 0" fill="#ff6243"/></svg>