<svg height="382pt" viewBox="-21 0 382 382.3" width="382pt" xmlns="http://www.w3.org/2000/svg"><path d="m191.148438 54.199219h139l-48.199219 82.5 48.199219 82.402343h-211.398438v-40.203124h72.398438zm0 0" fill="#e48e66"/><path d="m191.148438 54.199219v124.699219h-181v-168.898438h181zm0 0" fill="#e48e66"/><path d="m293.449219 136.699219 45.300781-77.398438c1.800781-3.089843 1.800781-6.910156 0-10-1.796875-3.101562-5.113281-5.007812-8.699219-5h-128.902343v-34.300781c-.015626-5.515625-4.480469-9.984375-10-10h-181c-5.515626.015625-9.984376 4.484375-10 10v362.300781c0 5.523438 4.480468 10 10 10 5.523437 0 10-4.476562 10-10v-183.402343h88.601562v30.203124c.015625 5.515626 4.484375 9.984376 10 10h211.398438c3.585937.003907 6.902343-1.902343 8.703124-5 1.796876-3.09375 1.796876-6.910156 0-10zm-273.300781 32.199219v-148.898438h161v148.898438zm108.601562 40.203124v-20.203124h62.398438c5.519531-.015626 9.984374-4.480469 10-10v-114.699219h111.601562l-39.398438 67.402343c-1.800781 3.125-1.800781 6.972657 0 10.097657l39.398438 67.402343zm0 0" fill="#63316d"/></svg>