<svg height="512pt" viewBox="0 -31 512 512" width="512pt" xmlns="http://www.w3.org/2000/svg"><path d="m481 15c0 41.398438-33.601562 75-75 75h-90c-24.902344 0-45 20.097656-45 45v30c0 8.398438-6.597656 15-15 15s-15-6.601562-15-15v-30c0-16.800781 5.398438-32.402344 15-44.699219 13.5-18.300781 35.398438-30.300781 60-30.300781h90c24.902344 0 45-20.101562 45-45 0-8.402344 6.597656-15 15-15s15 6.597656 15 15zm0 0" fill="#babac0"/><path d="m466 120h-113.402344c-19.496094 0-35.695312 12.300781-41.699218 30h-109.800782c-6-17.699219-22.199218-30-41.699218-30h-114.398438c-24.902344 0-45 20.097656-45 45v204c0 44.699219 37.300781 81 82 81 38.398438 0 71.699219-27.300781 79.199219-65.101562l2.699219-12.296876c.902343-4.800781-.898438-9.300781-3.898438-12.601562h196.5c-5.699219 3-9 9.300781-7.5 15.898438l1.800781 9c7.5 37.800781 40.800781 65.101562 79.199219 65.101562 44.699219 0 82-36.300781 82-81v-204c0-24.902344-21.097656-45-46-45zm0 0" fill="#3e5959"/><path d="m512 165v204c0 44.699219-37.300781 81-82 81-38.398438 0-71.699219-27.300781-79.199219-65.101562l-1.800781-9c-1.5-6.597657 1.800781-12.898438 7.5-15.898438h-100.5v-210h54.902344c6-17.699219 22.199218-30 41.699218-30h113.398438c24.902344 0 46 20.097656 46 45zm0 0" fill="#384949"/><path d="m166 390c-24.8125 0-45-20.1875-45-45s20.1875-45 45-45 45 20.1875 45 45-20.1875 45-45 45zm0 0" fill="#00ccb2"/><path d="m346 390c-24.8125 0-45-20.1875-45-45s20.1875-45 45-45 45 20.1875 45 45-20.1875 45-45 45zm0 0" fill="#00aa95"/><path d="m226 270h-30c-8.289062 0-15-6.710938-15-15s6.710938-15 15-15h30c8.289062 0 15 6.710938 15 15s-6.710938 15-15 15zm0 0" fill="#d3d3d8"/><path d="m316 270h-30c-8.289062 0-15-6.710938-15-15s6.710938-15 15-15h30c8.289062 0 15 6.710938 15 15s-6.710938 15-15 15zm0 0" fill="#babac0"/><path d="m136 240h-15v-15c0-8.289062-6.710938-15-15-15s-15 6.710938-15 15v15h-15c-8.289062 0-15 6.710938-15 15s6.710938 15 15 15h15v15c0 8.289062 6.710938 15 15 15s15-6.710938 15-15v-15h15c8.289062 0 15-6.710938 15-15s-6.710938-15-15-15zm0 0" fill="#d3d3d8"/><path d="m420.972656 225c0 8.285156-6.71875 15-15 15-8.285156 0-15-6.714844-15-15s6.714844-15 15-15c8.28125 0 15 6.714844 15 15zm0 0" fill="#00ccb2"/><path d="m390.972656 255c0 8.285156-6.71875 15-15 15-8.285156 0-15-6.714844-15-15s6.714844-15 15-15c8.28125 0 15 6.714844 15 15zm0 0" fill="#ff001e"/><path d="m420.972656 285c0 8.285156-6.71875 15-15 15-8.285156 0-15-6.714844-15-15s6.714844-15 15-15c8.28125 0 15 6.714844 15 15zm0 0" fill="#e2e2e7"/><path d="m450.972656 255c0 8.285156-6.71875 15-15 15-8.285156 0-15-6.714844-15-15s6.714844-15 15-15c8.28125 0 15 6.714844 15 15zm0 0" fill="#fdbf00"/></svg>