<?xml version="1.0" encoding="iso-8859-1"?>
<!-- Generator: Adobe Illustrator 19.0.0, SVG Export Plug-In . SVG Version: 6.00 Build 0)  -->
<svg version="1.1" id="Capa_1" xmlns="http://www.w3.org/2000/svg" xmlns:xlink="http://www.w3.org/1999/xlink" x="0px" y="0px"
	 viewBox="0 0 512 512" style="enable-background:new 0 0 512 512;" xml:space="preserve">
<rect style="fill:#FFEA00;" width="512" height="512"/>
<polygon style="fill:#2962FF;" points="512,512 0,512 256,256 "/>
<circle style="fill:#FF6D00;" cx="353" cy="159" r="60"/>
<path style="fill:#FFFF00;" d="M227.1,189c-2.919,0.012-5.771,0.881-8.2,2.5c0.1-0.8,0.1-1.6,0.1-2.5c0-16.569-13.431-30-30-30
	s-30,13.431-30,30s13.431,30,30,30h38.1c8.284,0,15-6.716,15-15S235.384,189,227.1,189L227.1,189z"/>
<path style="fill:#FF9100;" d="M430,305.2c-1.886-0.005-3.731,0.552-5.3,1.6c0-0.5,0.1-1,0.1-1.6c0-10.604-8.596-19.2-19.2-19.2
	s-19.2,8.596-19.2,19.2c0,10.604,8.596,19.2,19.2,19.2H430c5.302,0,9.6-4.298,9.6-9.6S435.302,305.2,430,305.2z"/>
<path style="fill:#FFC400;" d="M175.6,305.9c-4.87-0.008-9.635,1.418-13.7,4.1c0.1-1.3,0.2-2.7,0.2-4.1
	c0-27.559-22.341-49.9-49.9-49.9s-49.9,22.341-49.9,49.9c0,27.559,22.341,49.9,49.9,49.9h0h63.4
	c13.779,0.873,25.658-9.59,26.53-23.37s-9.59-25.658-23.37-26.53C177.708,305.833,176.653,305.833,175.6,305.9z"/>
<g>
</g>
<g>
</g>
<g>
</g>
<g>
</g>
<g>
</g>
<g>
</g>
<g>
</g>
<g>
</g>
<g>
</g>
<g>
</g>
<g>
</g>
<g>
</g>
<g>
</g>
<g>
</g>
<g>
</g>
</svg>
